<svg  xmlns="http://www.w3.org/2000/svg" viewBox="0 0 1440 320">
  <path fill="#f3f4f5" fill-opacity="0.8" d="M0,192L9.6,160C19.2,128,38,64,58,69.3C76.8,75,96,149,115,181.3C134.4,213,154,203,173,192C192,181,211,171,230,144C249.6,117,269,75,288,85.3C307.2,96,326,160,346,186.7C364.8,213,384,203,403,176C422.4,149,442,107,461,85.3C480,64,499,64,518,74.7C537.6,85,557,107,576,106.7C595.2,107,614,85,634,96C652.8,107,672,149,691,160C710.4,171,730,149,749,160C768,171,787,213,806,202.7C825.6,192,845,128,864,112C883.2,96,902,128,922,154.7C940.8,181,960,203,979,208C998.4,213,1018,203,1037,213.3C1056,224,1075,256,1094,277.3C1113.6,299,1133,309,1152,293.3C1171.2,277,1190,235,1210,224C1228.8,213,1248,235,1267,208C1286.4,181,1306,107,1325,64C1344,21,1363,11,1382,21.3C1401.6,32,1421,64,1430,80L1440,96L1440,320L1430.4,320C1420.8,320,1402,320,1382,320C1363.2,320,1344,320,1325,320C1305.6,320,1286,320,1267,320C1248,320,1229,320,1210,320C1190.4,320,1171,320,1152,320C1132.8,320,1114,320,1094,320C1075.2,320,1056,320,1037,320C1017.6,320,998,320,979,320C960,320,941,320,922,320C902.4,320,883,320,864,320C844.8,320,826,320,806,320C787.2,320,768,320,749,320C729.6,320,710,320,691,320C672,320,653,320,634,320C614.4,320,595,320,576,320C556.8,320,538,320,518,320C499.2,320,480,320,461,320C441.6,320,422,320,403,320C384,320,365,320,346,320C326.4,320,307,320,288,320C268.8,320,250,320,230,320C211.2,320,192,320,173,320C153.6,320,134,320,115,320C96,320,77,320,58,320C38.4,320,19,320,10,320L0,320Z"></path>
</svg>